<svg width="200" height="50" viewBox="0 0 200 50" fill="none" xmlns="http://www.w3.org/2000/svg">
  <!-- Icon: W with Upward Arrow -->
  <defs>
    <linearGradient id="logo-gradient" x1="0" y1="0" x2="1" y2="1">
      <stop offset="0%" stop-color="#3B82F6"/>
      <stop offset="100%" stop-color="#2563EB"/>
    </linearGradient>
  </defs>
  
  <g transform="translate(0, 5)">
    <!-- The W Shape -->
    <path d="M10 0 L20 28 L30 8 L40 28 L50 0 H 62 L 48 40 H 34 L 28 20 L 22 40 H 8 L -4 0 H 10 Z" fill="#0F172A"/>
    
    <!-- The Arrow (Negative Space or Overlay) -->
    <!-- Incorporating an arrow into the negative space of the W or rising from it -->
    <path d="M45 0 L 55 -10 L 65 0 V 10 H 45 V 0 Z" fill="url(#logo-gradient)" transform="translate(10, 5)"/>
  </g>

  <!-- Text: WebLift -->
  <!-- Using a custom geometric path for "WebLift" to ensure "better font" look without relying on system fonts -->
  <g transform="translate(75, 34)">
     <!-- W -->
     <path d="M0 0 L5 -18 L10 0 L14 -18 L19 0 H 23 L 16 -24 H 12 L 8 -10 L 4 -24 H 0 L -7 0 H 0 Z" fill="#0F172A"/>
     <!-- e -->
     <path d="M30 -9 H 42 C 41 -15 38 -18 34 -18 C 30 -18 26 -15 26 -9 C 26 -3 30 1 35 1 C 39 1 42 -2 43 -4 L 46 -2 C 44 2 39 4 35 4 C 27 4 22 -2 22 -9 C 22 -16 27 -21 34 -21 C 41 -21 46 -16 46 -9 V -7 H 26 C 26 -4 28 -2 31 -2 Z" fill="#0F172A"/>
     <!-- b -->
     <path d="M55 0 V -24 H 59 V -12 C 61 -14 63 -15 66 -15 C 72 -15 76 -10 76 -5 C 76 1 72 5 66 5 C 63 5 60 4 59 2 V 5 H 55 Z M 59 -5 V -5 C 60 -3 62 -2 64 -2 C 68 -2 71 -6 71 -10 C 71 -14 68 -16 64 -16 C 62 -16 60 -15 59 -12 V -5 Z" fill="#0F172A"/>
     <!-- L -->
     <path d="M85 0 V -24 H 89 V -3 H 98 V 0 H 85 Z" fill="#0F172A"/>
     <!-- i -->
     <path d="M105 0 V -16 H 109 V 0 H 105 Z M 105 -20 V -24 H 109 V -20 H 105 Z" fill="#0F172A"/>
     <!-- f -->
     <path d="M118 -16 V 0 H 114 V -16 H 111 V -19 H 114 V -20 C 114 -24 116 -25 120 -25 H 123 V -22 H 120 C 119 -22 118 -22 118 -21 V -19 H 123 L 122 -16 H 118 Z" fill="#0F172A"/>
     <!-- t -->
     <path d="M130 -16 V -3 C 130 -1 131 0 133 0 H 135 V 3 H 133 C 128 3 126 1 126 -3 V -16 H 123 V -19 H 126 V -23 H 130 V -19 H 135 V -16 H 130 Z" fill="#0F172A"/>
  </g>
</svg>
